<svg width="56" height="56" viewBox="0 0 56 56" fill="none" xmlns="http://www.w3.org/2000/svg">
<g clip-path="url(#clip0_520_783)">
<path d="M28 0C22.4621 0 17.0486 1.64217 12.444 4.71885C7.83947 7.79553 4.25064 12.1685 2.13139 17.2849C0.012132 22.4012 -0.542361 28.0311 0.538025 33.4625C1.61841 38.894 4.28515 43.8831 8.20102 47.799C12.1169 51.7149 17.106 54.3816 22.5375 55.462C27.969 56.5424 33.5988 55.9879 38.7151 53.8686C43.8315 51.7494 48.2045 48.1605 51.2812 43.556C54.3578 38.9514 56 33.5379 56 28C55.992 20.5764 53.0394 13.4592 47.7901 8.20988C42.5409 2.9606 35.4236 0.00802919 28 0V0ZM37.3333 30.3333H30.3333V37.3333C30.3333 37.9522 30.0875 38.5457 29.6499 38.9833C29.2123 39.4208 28.6189 39.6667 28 39.6667C27.3812 39.6667 26.7877 39.4208 26.3501 38.9833C25.9125 38.5457 25.6667 37.9522 25.6667 37.3333V30.3333H18.6667C18.0478 30.3333 17.4543 30.0875 17.0168 29.6499C16.5792 29.2123 16.3333 28.6188 16.3333 28C16.3333 27.3812 16.5792 26.7877 17.0168 26.3501C17.4543 25.9125 18.0478 25.6667 18.6667 25.6667H25.6667V18.6667C25.6667 18.0478 25.9125 17.4543 26.3501 17.0168C26.7877 16.5792 27.3812 16.3333 28 16.3333C28.6189 16.3333 29.2123 16.5792 29.6499 17.0168C30.0875 17.4543 30.3333 18.0478 30.3333 18.6667V25.6667H37.3333C37.9522 25.6667 38.5457 25.9125 38.9833 26.3501C39.4208 26.7877 39.6667 27.3812 39.6667 28C39.6667 28.6188 39.4208 29.2123 38.9833 29.6499C38.5457 30.0875 37.9522 30.3333 37.3333 30.3333Z" fill="#D9D9D9"/>
</g>
<defs>
<clipPath id="clip0_520_783">
<rect width="56" height="56" fill="white"/>
</clipPath>
</defs>
</svg>
